<?xml version="1.0" encoding="utf-8" ?>
<svg xmlns="http://www.w3.org/2000/svg" xmlns:xlink="http://www.w3.org/1999/xlink" width="500" height="155">
	<path fill="#B78D80" d="M67.0408 82.9555C66.8962 82.9642 66.761 82.9577 66.6202 82.9189C65.0317 82.482 57.6848 72.2088 56.5997 70.3562C56.6763 70.1771 56.7537 69.8838 56.9151 69.7821C57.5546 69.3788 73.8568 69.6317 75.1306 70.0107C75.7643 70.1992 75.94 70.8134 76.2141 71.3469Q75.044 72.791 73.9619 74.302C72.8488 76.0488 68.6687 82.6915 67.1452 82.944C67.1107 82.9497 67.0756 82.9517 67.0408 82.9555ZM67.07 80.2445C68.941 78.2768 70.6406 75.995 71.6941 73.4861L71.7554 72.8722L71.3312 72.396C67.7134 71.9903 64.2436 71.6505 60.5962 71.8849C62.9198 74.5123 64.569 77.8367 67.07 80.2445Z"/>
	<path fill="#AE7B6E" d="M71.3312 72.396C72.9055 72.0032 74.5747 71.2293 76.2141 71.3469Q75.044 72.791 73.9619 74.302L72.7347 74.4903C72.4732 73.984 72.1765 73.7762 71.6941 73.4861L71.7554 72.8722L71.3312 72.396Z"/>
	<path fill="#82634D" d="M68.0036 96.6904C70.85 92.3103 78.8905 80.4433 82.6022 77.4223L82.8537 77.4849C82.306 79.1852 80.9022 80.9222 79.9441 82.4417C79.0467 83.8649 78.3512 85.3858 77.4399 86.7985C75.4377 89.9023 73.0953 92.7394 70.7525 95.5864L70.6685 95.6283C69.8286 96.0532 69.2316 97.06 68.522 97.315C68.2783 97.115 68.1296 96.9826 68.0036 96.6904Z"/>
	<path fill="#785653" d="M53.2878 84.0622C52.3045 83.1838 51.1352 81.398 50.4702 80.2373C50.0323 79.473 49.5556 78.4843 49.7979 77.5987L50.1565 77.4245C52.1563 78.0942 53.8288 81.2403 54.9966 82.8992L53.2878 84.0622Z"/>
	<path fill="#7D5A5A" d="M61.0514 91.2869C62.1801 93.258 63.5843 95.266 65.089 96.9665C65.1523 97.0381 65.1984 97.1099 65.2435 97.1938C64.7575 97.8164 64.4042 98.2789 63.6422 98.5789C62.4387 96.97 61.3176 95.4074 60.2712 93.6913C60.4102 92.7786 60.6077 92.0997 61.0514 91.2869Z"/>
	<path fill="#785653" d="M68.0036 96.6904C68.1296 96.9826 68.2783 97.115 68.522 97.315C69.2316 97.06 69.8286 96.0532 70.6685 95.6283L70.7525 95.5864C69.8232 96.9978 68.076 100.426 66.3108 100.773C66.1749 100.8 66.0393 100.815 65.9016 100.828C65.1446 100.265 64.5953 99.5531 64.0049 98.8257L63.6422 98.5789C64.4042 98.2789 64.7575 97.8164 65.2435 97.1938C65.5655 97.5372 65.9018 97.7464 66.3034 97.9833C67.0662 97.8406 67.4651 97.2325 68.0036 96.6904Z"/>
	<path fill="#7D5A5A" d="M64.0049 98.8257C64.6777 98.6284 65.167 98.4526 65.8459 98.7497C66.17 99.1514 66.2749 99.3384 66.2371 99.881C66.2148 100.201 66.038 100.54 65.9016 100.828C65.1446 100.265 64.5953 99.5531 64.0049 98.8257Z"/>
	<path fill="#7D5A5A" d="M54.9966 82.8992L55.9541 84.1754C56.798 85.3966 57.7049 86.6055 58.473 87.8748L57.3833 89.206L54.7152 85.8435C54.1356 85.3544 53.7224 84.6779 53.2878 84.0622L54.9966 82.8992Z"/>
	<path fill="#785653" d="M58.473 87.8748C59.3175 89.0225 60.1483 90.1843 61.0514 91.2869C60.6077 92.0997 60.4102 92.7786 60.2712 93.6913C59.2552 92.2637 58.1433 90.7868 57.3833 89.206L58.473 87.8748Z"/>
	<defs>
		<linearGradient id="gradient_0" gradientUnits="userSpaceOnUse" x1="26.2355" y1="86.53788" x2="87.772575" y2="73.173752">
			<stop offset="0" stop-color="#965E4F"/>
			<stop offset="1" stop-color="#B17B57"/>
		</linearGradient>
	</defs>
	<path fill="url(#gradient_0)" d="M65.9847 8.07398C66.2221 17.6719 65.8475 27.3689 66.5659 36.9444C67.2145 37.4894 67.8864 37.87 68.1849 38.6723C66.115 40.7651 64.3611 43.391 62.6641 45.793L61.3858 47.5238C60.239 49.3968 58.9111 51.2735 57.5238 52.9752C55.9944 55.702 53.9478 58.2376 52.0749 60.7414C47.6236 68.3706 41.0643 74.6257 36.99 82.5149C38.5108 85.0465 40.3776 87.5873 41.7106 90.2078C42.5343 91.5366 43.4734 92.8713 44.1441 94.2826C46.5226 96.9812 52.6353 109.504 54.2747 110.552C56.6265 115.329 61.9642 124.217 65.0836 128.411C65.5824 129.37 66.1687 131.142 67.0386 131.749C67.5608 131.722 67.5962 131.7 67.9375 131.318C68.1533 131.077 68.3228 130.805 68.4936 130.531Q69.6336 128.782 70.7305 127.006C70.9638 126.471 71.3331 125.954 71.6335 125.451C72.1939 123.706 73.6501 121.75 74.6197 120.182C74.8843 118.49 78.2588 113.375 79.3887 111.748C80.4886 108.61 83.6116 104.352 85.4006 101.423C85.5186 102.75 83.7242 105.486 82.846 106.546C82.9884 106.75 83.2191 106.786 83.4449 106.858C85.0909 106.163 94.6716 103.18 95.156 102.603C95.1707 102.586 95.1835 102.567 95.1973 102.549L95.5763 102.7C94.7279 104.524 93.2281 106.416 92.1491 108.145C88.7085 113.659 85.1601 119.084 81.6211 124.533C77.9135 130.243 71.6504 142.173 67.2069 146.43C65.6023 145.266 64.4267 143.599 63.288 142C53.7654 128.635 45.29 114.382 36.4845 100.536C34.0211 96.6625 25.4793 84.5189 24.6395 81.225C24.1945 79.4795 36.5115 59.4462 38.1521 56.5577C41.9226 49.9197 45.4533 43.1431 49.2252 36.5082C54.6657 26.9382 60.3586 17.5328 65.9847 8.07398Z"/>
	<path fill="#E4B785" d="M39.8995 90.0314C38.8548 89.1231 36.4492 84.7741 36.4143 83.3772C36.4014 82.8633 36.4955 82.5633 36.8375 82.2041L36.99 82.5149C38.5108 85.0465 40.3776 87.5873 41.7106 90.2078C42.5343 91.5366 43.4734 92.8713 44.1441 94.2826C46.5226 96.9812 52.6353 109.504 54.2747 110.552C56.6265 115.329 61.9642 124.217 65.0836 128.411C65.5824 129.37 66.1687 131.142 67.0386 131.749C67.5608 131.722 67.5962 131.7 67.9375 131.318C68.1533 131.077 68.3228 130.805 68.4936 130.531L69.6601 131.388C68.8462 132.83 67.9161 134.227 67.0149 135.617Q59.0928 122.923 51.5865 109.98C48.7552 105.202 45.4096 100.321 43.1101 95.2814C42.2053 94.8145 40.4992 91.1237 39.8995 90.0314Z"/>
	<path fill="#E4B785" d="M79.3887 111.748C79.7712 112.09 80.0549 112.36 80.2675 112.834C78.7052 115.789 77.0431 118.783 75.2157 121.584C74.3604 123.259 73.548 124.962 72.4364 126.487C72.1439 126.981 71.8507 127.636 71.4411 128.034C70.8682 129.137 70.3418 130.352 69.6601 131.388L68.4936 130.531Q69.6336 128.782 70.7305 127.006C70.9638 126.471 71.3331 125.954 71.6335 125.451C72.1939 123.706 73.6501 121.75 74.6197 120.182C74.8843 118.49 78.2588 113.375 79.3887 111.748Z"/>
	<path fill="#B78D80" d="M57.8816 49.9304L58.2968 50.052L58.8144 49.4512C58.5758 50.6925 57.3813 51.7383 57.5238 52.9752C55.9944 55.702 53.9478 58.2376 52.0749 60.7414C51.9902 60.4985 51.9129 60.2495 51.8883 59.9921C51.7116 58.143 56.4705 51.5151 57.8816 49.9304Z"/>
	<path fill="#E4B785" d="M66.5659 36.9444C67.2145 37.4894 67.8864 37.87 68.1849 38.6723C66.115 40.7651 64.3611 43.391 62.6641 45.793C62.583 45.6696 62.5062 45.5447 62.4426 45.4111C62.0115 44.5053 62.5619 43.6101 62.8976 42.7245C64.2425 40.9331 65.7854 39.0596 66.5659 36.9444Z"/>
	<path fill="#D3A06B" d="M60.9522 45.5197C61.5546 44.5395 62.1463 43.5988 62.8976 42.7245C62.5619 43.6101 62.0115 44.5053 62.4426 45.4111C62.5062 45.5447 62.583 45.6696 62.6641 45.793L61.3858 47.5238C60.239 49.3968 58.9111 51.2735 57.5238 52.9752C57.3813 51.7383 58.5758 50.6925 58.8144 49.4512L58.2968 50.052L57.8816 49.9304Q59.3977 47.7117 60.9522 45.5197Z"/>
	<path fill="#D3A06B" d="M85.4006 101.423C85.5186 102.75 83.7242 105.486 82.846 106.546C81.3951 108.117 82.8244 111.784 80.2675 112.834C80.0549 112.36 79.7712 112.09 79.3887 111.748C80.4886 108.61 83.6116 104.352 85.4006 101.423Z"/>
	<path fill="#FDFDFD" d="M321.782 46.8749C322.664 46.8019 323.572 46.8168 324.457 46.7925C326.019 47.291 327.153 48.2549 327.898 49.7107C328.384 50.6616 328.66 51.768 328.799 52.8231C329.717 59.7834 329.456 67.2945 329.501 74.3192C329.533 79.427 329.824 84.7332 329.424 89.8228Q329.134 93.3559 328.058 96.7336C325.929 103.247 321.194 109.081 315.041 112.185C308.614 115.428 300.402 115.784 293.601 113.524C289.887 112.289 286.43 110.02 283.639 107.294C273.917 97.7987 275.304 85.5733 275.434 73.1138C275.451 71.4139 275.827 68.1623 275.057 66.7529C275.033 66.71 275.008 66.6683 274.983 66.626C276.629 64.0017 274.49 54.5089 276.487 50.0485C277.072 48.742 278.011 47.6929 279.371 47.1847C280.778 46.6592 282.441 46.7654 283.796 47.3944Q284.071 47.525 284.332 47.6826Q284.593 47.8402 284.837 48.0233Q285.081 48.2064 285.305 48.4131Q285.529 48.6198 285.731 48.848Q285.933 49.0762 286.111 49.3236Q286.289 49.5709 286.442 49.835Q286.594 50.0991 286.719 50.3771Q286.844 50.6552 286.94 50.9444C287.794 53.4608 287.582 57.0413 287.612 59.707C287.689 66.5479 286.581 88.4307 288.663 93.9827C289.968 97.4619 292.478 100.412 295.891 101.956C299.485 103.583 305.188 103.222 308.849 101.809C312.152 100.534 314.441 98.0392 315.686 94.7465C317.944 88.7736 317.121 67.9749 317.15 60.3366C317.161 57.3404 316.921 53.6868 317.622 50.7695C317.883 49.6813 318.706 48.7549 319.155 47.7292C320.036 47.5171 320.921 47.1637 321.782 46.8749Z"/>
	<path fill="#FDFDFD" d="M163.121 52.4427C164.291 50.4912 165.65 48.1112 168.024 47.4965C171.309 46.6459 194.585 46.7782 198.852 47.1688C200.267 47.2984 201.714 47.4381 202.952 48.1804C204.323 49.0022 205.336 50.2183 205.727 51.7839C206.069 53.1504 205.903 55.175 205.166 56.3902C204.309 57.804 202.685 58.4522 201.141 58.7987C197.111 59.7031 192.242 59.2115 188.123 59.2102C183.731 59.2087 179.352 59.3421 174.963 59.3889C175.662 60.5838 175.769 73.1057 175.353 74.7444C175.341 74.7925 175.327 74.8402 175.314 74.8881C177.996 75.0043 180.65 75.1421 183.337 75.1423C187.64 75.1425 192.566 74.5543 196.733 75.671C197.727 75.9373 198.624 76.5188 199.312 77.2781Q199.493 77.4771 199.653 77.6931Q199.814 77.909 199.952 78.1397Q200.09 78.3703 200.205 78.6136Q200.32 78.8568 200.411 79.1101Q200.501 79.3635 200.566 79.6245Q200.631 79.8856 200.67 80.1517Q200.708 80.4179 200.721 80.6866Q200.733 80.9553 200.719 81.2239C200.641 82.7021 199.954 84.0065 198.857 84.9848C197.86 85.8743 196.593 86.3665 195.291 86.6013C192.048 87.1857 188.455 86.727 185.158 86.739C182.233 86.7497 179.204 87.0066 176.295 86.8266Q175.694 86.7886 175.098 86.7051C175.846 88.5985 175.89 99.4054 175.157 101.377C176.019 101.361 177.091 101.456 177.925 101.288C182.418 101.918 202.283 100.243 204.552 103.341C204.639 103.459 204.698 103.586 204.749 103.723C205.787 104.518 206.528 105.869 206.713 107.162C206.906 108.511 206.47 109.87 205.652 110.944C204.681 112.219 203.343 113.017 201.746 113.217Q201.339 113.267 200.93 113.282C199.976 112.582 184.887 112.847 182.888 113.094C182.534 113.138 182.192 113.308 181.909 113.518C178.793 114.031 170.964 113.939 168.125 112.448C165.334 110.982 164.038 108.191 163.159 105.317C163.387 104.939 163.556 104.538 163.583 104.093C163.783 100.839 163.504 97.4269 163.5 94.1523C163.495 89.835 163.896 85.0324 163.353 80.7757C163.268 80.1169 163.098 79.6206 162.661 79.1042C163.088 77.9008 162.899 76.3826 162.871 75.115C163.075 74.3475 163.102 73.54 163.164 72.751L163.304 73.8346C163.664 68.7594 163.456 63.6639 163.429 58.5839C163.42 56.927 163.757 55.2264 163.581 53.5761C163.537 53.1617 163.361 52.7802 163.121 52.4427Z"/>
	<path fill="#FDFDFD" d="M465.177 101.421C466.9 101.387 468.866 101.607 470.526 102.081C471.971 102.494 473.461 103.245 474.21 104.613C474.942 105.951 475.237 107.904 474.787 109.375C474.373 110.73 473.234 112.042 471.973 112.682C470.675 113.341 468.788 113.501 467.358 113.605C463.515 113.883 443.135 114.014 440.652 113.183C438.375 112.422 436.724 110.709 435.672 108.588C434.923 107.078 434.638 105.644 434.512 103.973C433.995 97.1277 434.47 90.0763 434.476 83.2053C434.484 74.1382 434.11 64.8932 434.587 55.8479C434.658 54.4917 434.755 53.1186 435.199 51.8258C435.771 50.1607 436.867 48.7575 438.464 47.9782C439.71 47.3697 441.114 47.1184 442.488 47.012C446.239 46.7214 450.124 47.0815 453.897 47.089C458.237 47.0976 462.657 46.7859 466.984 47.0286C468.197 47.0966 469.416 47.2408 470.57 47.6353C471.574 48.0055 472.666 49.1445 473.275 50.0047C474.07 51.1274 474.511 52.4253 474.27 53.7977C474.304 53.9015 474.329 54.0039 474.342 54.1128C474.447 54.9829 473.704 56.3856 473.155 56.9837C472.089 58.1458 470.284 58.7495 468.774 59.0166C465.884 59.528 462.808 59.2765 459.883 59.2182C455.545 59.1315 451.156 59.002 446.82 59.1833C446.865 59.2727 446.886 59.3047 446.917 59.3927C447.328 60.5249 447.327 73.9775 446.883 74.9452C450.135 75.2124 453.366 75.2739 456.628 75.2549C459.417 75.2387 462.388 75.0024 465.142 75.5075C466.479 75.7527 467.865 76.2494 468.887 77.1742Q469.078 77.3461 469.25 77.5361Q469.423 77.7261 469.575 77.9325Q469.728 78.1388 469.86 78.3594Q469.991 78.5799 470.1 78.8125Q470.208 79.045 470.293 79.2873Q470.378 79.5295 470.438 79.7791Q470.498 80.0286 470.534 80.2829Q470.569 80.5372 470.578 80.7937C470.636 82.3606 469.978 83.9282 468.912 85.0638C465.958 88.2111 457.749 86.9055 453.588 87.0458Q450.215 86.9787 446.841 87.0309C447.333 88.1487 447.327 99.8011 446.897 100.885C446.837 101.035 446.773 101.169 446.687 101.305C452.754 101.632 459.121 101.864 465.177 101.421Z"/>
	<path fill="#FDFDFD" d="M391.339 46.8749C393.075 46.8687 394.883 47.2002 396.171 48.4546C396.973 49.2351 397.472 50.3937 397.471 51.52C397.467 55.6521 382.288 89.4295 379.666 95.8737C378.11 99.6968 377.042 103.827 375.303 107.546C374.528 109.201 373.507 110.854 372.181 112.127Q371.988 112.312 371.778 112.477Q371.568 112.641 371.343 112.784Q371.117 112.927 370.878 113.046Q370.639 113.165 370.39 113.26Q370.14 113.355 369.882 113.424Q369.625 113.493 369.361 113.536Q369.098 113.579 368.831 113.595Q368.565 113.612 368.298 113.601C366.952 113.558 365.686 113.004 364.775 112.006C360.666 107.504 356.973 96.1404 354.521 90.1694C352.626 85.5565 350.586 81.0163 348.747 76.3784C347.951 74.3698 345.976 68.7152 344.655 67.3902C344.62 67.3557 344.585 67.3225 344.55 67.2887C344.91 64.7454 339.198 55.8151 339.502 51.6426C339.595 50.3624 340.205 49.0763 341.194 48.2473C342.215 47.3911 343.548 47.0702 344.858 47.2029C346.59 47.3783 348.238 48.3676 349.327 49.7087C351.431 52.2988 356.257 65.5697 358.016 69.6738C361.35 77.4527 365.099 85.0224 368.085 92.9574C368.273 93.4571 368.372 93.806 368.317 94.3473C370.551 92.0273 382.471 58.0953 386.117 51.3287C387.543 48.6811 388.422 47.7413 391.339 46.8749Z"/>
	<path fill="#FDFDFD" d="M226.606 47.1245C228.314 46.944 229.871 46.9742 231.422 47.8032C232.336 48.2913 233.037 49.0309 233.336 50.0325C233.88 51.8507 234.112 53.8906 234.19 55.7872C234.467 62.5331 234.118 69.399 234.15 76.1638C234.188 84.1326 234.577 92.203 234.383 100.153C234.374 100.535 234.233 100.895 234.055 101.229C241.27 101.763 248.46 101.22 255.668 101.474C258.249 101.566 261.058 102.115 262.884 104.097C263.889 105.188 264.465 106.628 264.388 108.118C264.307 109.684 263.512 111.392 262.354 112.446C261.672 113.122 259.959 113.335 259.041 113.473C253.964 114.019 232.457 114.27 228.465 112.623C226.29 111.725 224.492 109.706 223.61 107.54C222.712 105.337 222.537 102.615 222.404 100.251C222.127 95.3773 221.745 52.8198 223.031 50.0007C223.68 48.5779 225.187 47.6346 226.606 47.1245Z"/>
	<path fill="#FDFDFD" d="M410.807 46.8748C412.112 46.6438 413.122 46.9145 414.366 47.276C414.982 47.6086 415.82 48.3131 416.172 48.9174C416.854 49.9469 417.12 50.9735 417.287 52.1895C417.769 55.6953 417.555 59.474 417.571 63.0159L417.649 81.0727Q417.644 87.4341 417.745 93.7947C417.862 98.5027 418.162 103.383 417.767 108.075C417.653 109.44 417.452 110.569 416.605 111.673C415.485 113.132 413.852 113.988 412.051 114.217C411.486 114.251 410.83 114.042 410.3 113.853C408.845 113.336 407.873 112.132 407.233 110.772C406.547 109.311 406.401 107.934 406.296 106.348C405.883 100.081 405.838 53.1537 406.829 50.4724C407.51 48.6296 409.109 47.6607 410.807 46.8748Z"/>
	<defs>
		<linearGradient id="gradient_1" gradientUnits="userSpaceOnUse" x1="89.263763" y1="66.6632" x2="64.474319" y2="9.3422747">
			<stop offset="0" stop-color="#F3CC97"/>
			<stop offset="1" stop-color="#FBEFD9"/>
		</linearGradient>
	</defs>
	<path fill="url(#gradient_1)" d="M65.9847 8.07398C66.5391 7.77287 66.8421 7.50458 67.4933 7.57057C69.0227 9.74753 70.1647 12.3057 71.3806 14.6724Q75.0328 21.8023 78.8096 28.867C79.9634 31.0411 81.0243 33.4813 82.4032 35.505C85.306 41.6439 89.2036 47.3484 92.4244 53.3301C95.3016 58.7723 98.6986 63.9682 101.476 69.4459L101.129 69.4066C100.363 68.8846 97.4822 63.4257 96.9249 62.2555L96.8048 62.2946L96.1794 63.7619C94.2393 64.9997 89.4755 64.4508 87.2448 64.2514L86.9893 64.9168L86.6007 64.8751L86.1763 64.1001L86.1166 64.1495C86.0415 64.7407 86.4913 65.2332 86.8135 65.6923L86.3265 65.8496C83.5872 61.7056 80.7717 57.5037 77.9327 53.4223C75.6164 50.0924 69.2407 41.9534 68.1849 38.6723C67.8864 37.87 67.2145 37.4894 66.5659 36.9444C65.8475 27.3689 66.2221 17.6719 65.9847 8.07398Z"/>
	<path fill="#E4B785" d="M86.3265 65.8496L86.8135 65.6923C86.4913 65.2332 86.0415 64.7407 86.1166 64.1495L86.1763 64.1001L86.6007 64.8751L86.9893 64.9168L87.2448 64.2514C89.4755 64.4508 94.2393 64.9997 96.1794 63.7619L96.8048 62.2946L96.9249 62.2555C97.4822 63.4257 100.363 68.8846 101.129 69.4066L101.476 69.4459C104.091 73.2506 106.814 77.807 108.161 82.2252C106.103 87.7284 102.639 92.0174 99.4277 96.856C98.1914 98.7189 97.0199 101.022 95.5763 102.7L95.1973 102.549C95.1835 102.567 95.1707 102.586 95.156 102.603C94.6716 103.18 85.0909 106.163 83.4449 106.858C83.2191 106.786 82.9884 106.75 82.846 106.546C83.7242 105.486 85.5186 102.75 85.4006 101.423Q87.9371 96.9028 90.6143 92.4646C92.665 89.1387 95.1406 86.0666 96.2307 82.2678C94.9049 78.8752 92.5907 75.9922 90.6062 72.9658C89.0871 70.6491 87.7096 68.2488 86.3265 65.8496Z"/>
	<path fill="#FDFDFD" fill-opacity="0.97254902" d="M162.661 79.1042C163.098 79.6206 163.268 80.1169 163.353 80.7757C163.896 85.0324 163.495 89.835 163.5 94.1523C163.504 97.4269 163.783 100.839 163.583 104.093C163.556 104.538 163.387 104.939 163.159 105.317C163.503 104.106 162.92 100.433 162.892 98.9747C162.81 94.656 163.489 82.2128 162.661 79.1042Z"/>
	<path fill="#FDFDFD" fill-opacity="0.96862745" d="M162.871 75.115C162.848 69.9498 162.765 64.7742 162.849 59.6099C162.887 57.2562 163.269 54.7749 163.121 52.4427C163.361 52.7802 163.537 53.1617 163.581 53.5761C163.757 55.2264 163.42 56.927 163.429 58.5839C163.456 63.6639 163.664 68.7594 163.304 73.8346L163.164 72.751C163.102 73.54 163.075 74.3475 162.871 75.115Z"/>
	<path fill="#FDFDFD" fill-opacity="0.96470588" d="M181.909 113.518C182.192 113.308 182.534 113.138 182.888 113.094C184.887 112.847 199.976 112.582 200.93 113.282C199.605 113.884 184.366 113.657 181.909 113.518Z"/>
</svg>
